<svg width="130" height="115" viewBox="0 0 130 115" fill="none" xmlns="http://www.w3.org/2000/svg">
<path d="M77.0694 6.29132C77.4273 5.64923 78.4039 6.0918 78.157 6.78419L63.3035 48.4413C63.1331 48.9191 63.5965 49.3791 64.073 49.2053L130 25.1612L66.4473 57.7883C66.1696 57.9309 66.0479 58.2629 66.1677 58.5512L86.3686 107.16C86.6517 107.842 85.6926 108.333 85.3054 107.705L58.1841 63.7066C58.0191 63.4389 57.6752 63.3443 57.3966 63.49L1.79724 92.5575L49.1847 58.5022C49.5071 58.2706 49.5191 57.7952 49.2088 57.5475L0 18.2718L52.3779 49.3284C52.6679 49.5003 53.0426 49.3992 53.2067 49.1047L77.0694 6.29132Z" fill="white"/>
<path d="M58.4845 93.2087C58.3883 93.8969 57.3941 93.8969 57.2979 93.2087L52.9927 62.4093C52.9459 62.0744 52.6315 61.8447 52.2982 61.9017L18.3605 67.7136C17.6565 67.8342 17.3702 66.843 18.0302 66.5697L49.1734 53.6695C49.5154 53.5278 49.6484 53.1129 49.4523 52.7988L32.6857 25.9366C32.3133 25.34 33.0957 24.7008 33.606 25.1846L57.4791 47.8174C57.7102 48.0365 58.0723 48.0365 58.3034 47.8174L82.1764 25.1846C82.6868 24.7008 83.4692 25.34 83.0968 25.9366L66.3301 52.7988C66.1341 53.1129 66.267 53.5278 66.6091 53.6695L97.7523 66.5697C98.4122 66.843 98.126 67.8342 97.4219 67.7136L63.4842 61.9017C63.151 61.8447 62.8366 62.0745 62.7898 62.4093L58.4845 93.2087Z" fill="white"/>
</svg>
