<svg width="155" height="66" viewBox="0 0 155 66" fill="none" xmlns="http://www.w3.org/2000/svg">
<path d="M70 25.0002C72.8495 29.3364 72 32.447 72 38.0002C63.75 38.0002 55.5 38.0002 47 38.0002C48.8572 45.7123 48.8572 45.7123 52 47.0002C53.6644 47.0958 55.3328 47.13 57 47.1252C58.3303 47.1291 58.3303 47.1291 59.6875 47.133C62.0268 47.1515 62.0268 47.1515 64 46.0002C65.1335 43.9835 65.1335 43.9835 66 42.0002C67.98 42.0002 69.96 42.0002 72 42.0002C71.5105 47.5067 71.5105 47.5067 69.125 49.8127C65.2377 51.985 62.0722 52.1624 57.6875 52.1877C56.5776 52.2019 55.4677 52.216 54.3242 52.2307C50.2054 51.9451 46.4374 51.5683 43.539 48.4064C40.557 42.1875 39.708 36.3551 41.6953 29.6564C43.1548 26.2715 44.3077 24.4155 47.5 22.5002C55.3064 21.385 63.1208 20.6633 70 25.0002Z" fill="white"/>
<path d="M22.9375 21.8127C24.1563 21.8005 25.3751 21.7882 26.6309 21.7756C28.374 21.7727 28.374 21.7727 30.1523 21.7697C31.2248 21.7656 32.2972 21.7615 33.4021 21.7573C36 22.0002 36 22.0002 38 24.0002C37.6993 29.8641 35.7016 34.8568 33.5 40.2502C32.8641 41.8386 32.2287 43.4271 31.5937 45.0158C31.3121 45.7097 31.0304 46.4035 30.7402 47.1184C30.1078 48.726 29.5463 50.3613 29 52.0002C28.01 52.0002 27.02 52.0002 26 52.0002C25.34 50.6802 24.68 49.3602 24 48.0002C24.33 49.3202 24.66 50.6402 25 52.0002C22.69 52.0002 20.38 52.0002 18 52.0002C16.3209 47.6716 14.6585 43.3368 13 39.0002C12.5965 37.9651 12.193 36.93 11.7773 35.8635C11.4177 34.9186 11.058 33.9737 10.6875 33.0002C10.3614 32.1546 10.0352 31.309 9.69921 30.4377C8.94978 27.8252 8.79812 25.7044 9 23.0002C11.6454 20.3548 19.374 21.8146 22.9375 21.8127Z" fill="#655E20"/>
<path d="M101.25 23.1251C104.605 25.4127 105.215 27.0774 106 31.0001C103.25 31.2501 103.25 31.2501 100 31.0001C99.4122 30.3401 98.8244 29.6801 98.2188 29.0001C95.1804 26.2612 93.2682 26.5894 89.25 26.7501C88.0795 26.7862 86.9091 26.8223 85.7031 26.8595C84.8111 26.9059 83.9191 26.9523 83 27.0001C83.33 28.9801 83.66 30.9601 84 33.0001C85.5198 33.147 85.5198 33.147 87.0703 33.297C88.422 33.4471 89.7735 33.5982 91.125 33.7501C91.7902 33.812 92.4553 33.8738 93.1406 33.9376C98.3663 34.5524 102.247 36.2471 106 40.0001C106.09 41.961 106.09 41.961 105.938 44.3751C105.905 45.1666 105.873 45.958 105.84 46.7735C105 49.0001 105 49.0001 102.441 50.7618C98.5436 52.1643 95.0897 52.4799 91 52.4376C89.9713 52.4676 89.9713 52.4676 88.9219 52.4981C83.8308 52.4933 80.8561 51.2843 77 48.0001C76.125 44.7501 76.125 44.7501 76 42.0001C78.31 42.0001 80.62 42.0001 83 42.0001C83.1238 42.6395 83.2475 43.2788 83.375 43.9376C83.5812 44.6182 83.7875 45.2988 84 46.0001C86.6092 47.3047 88.5894 47.1327 91.5 47.1251C92.4797 47.1277 93.4594 47.1302 94.4688 47.1329C96.9943 47.1695 96.9943 47.1695 99 46.0001C99 44.0201 99 42.0401 99 40.0001C97.9868 39.9743 96.9736 39.9485 95.9297 39.922C94.5781 39.8656 93.2265 39.8083 91.875 39.7501C90.8773 39.7288 90.8773 39.7288 89.8594 39.7071C83.8204 39.4111 80.2033 37.2034 76 33.0001C75.625 30.1251 75.625 30.1251 76 27.0001C81.503 19.9789 93.3206 20.2692 101.25 23.1251Z" fill="white"/>
<path d="M110 22C111.98 22 113.96 22 116 22C116.022 22.9228 116.022 22.9228 116.044 23.8643C116.119 26.6601 116.215 29.4548 116.313 32.25C116.335 33.2181 116.358 34.1862 116.381 35.1836C116.416 36.1182 116.452 37.0527 116.488 38.0156C116.514 38.8745 116.541 39.7333 116.568 40.6182C117.091 43.5032 117.954 44.9138 120 47C123.603 47.4586 125.968 47.5706 129.185 45.7917C131.557 43.4498 131.533 42.1889 131.609 38.8945C131.642 37.9116 131.674 36.9287 131.707 35.916C131.728 34.3798 131.728 34.3798 131.75 32.8125C131.78 31.7767 131.809 30.741 131.84 29.6738C131.911 27.1158 131.963 24.5587 132 22C134.31 22 136.62 22 139 22C139 31.9 139 41.8 139 52C137.02 52 135.04 52 133 52C132.67 51.01 132.34 50.02 132 49C131.402 49.495 130.804 49.99 130.188 50.5C125.501 52.7053 121.092 52.841 116 52C113.103 49.7984 111.607 48.2141 110 45C109.916 43.2596 109.893 41.5159 109.902 39.7734C109.906 38.7422 109.909 37.7109 109.912 36.6484C109.921 35.5682 109.929 34.488 109.938 33.375C109.942 32.287 109.947 31.1991 109.951 30.0781C109.963 27.3854 109.979 24.6927 110 22Z" fill="white"/>
<path d="M10 27C11.98 27 13.96 27 16 27C19.5988 35.1859 22.5199 43.4097 25 52C22.69 52 20.38 52 18 52C10 31.5415 10 31.5415 10 27Z" fill="#18343F"/>
<path d="M56.9375 25.6875C57.7921 25.6707 58.6468 25.654 59.5273 25.6367C62.5887 26.0865 63.9155 26.7027 66 29C66 30.98 66 32.96 66 35C59.73 35 53.46 35 47 35C49.6513 25.7204 49.6513 25.7204 56.9375 25.6875Z" fill="black"/>
<path d="M12.5003 21.8867C13.5843 21.892 14.6683 21.8972 15.7852 21.9026C17.5399 21.9074 17.5399 21.9074 19.3301 21.9124C21.1776 21.9249 21.1776 21.9249 23.0625 21.9377C24.9159 21.9445 24.9159 21.9445 26.8067 21.9514C29.8712 21.9632 32.9356 21.9797 36 22.0002C35.01 22.3302 34.02 22.6602 33 23.0002C32.2668 25.0153 32.2668 25.0153 32 27.0002C31.01 27.0002 30.02 27.0002 29 27.0002C28.67 28.3202 28.34 29.6402 28 31.0002C27.34 31.0002 26.68 31.0002 26 31.0002C26 30.3402 26 29.6802 26 29.0002C24.68 28.3402 23.36 27.6802 22 27.0002C22 25.6802 22 24.3602 22 23.0002C20.68 23.0002 19.36 23.0002 18 23.0002C19.1381 29.5648 19.1381 29.5648 21.1875 35.8752C22 38.0002 22 38.0002 21 42.0002C19.35 37.3802 17.7 32.7602 16 28.0002C13.69 28.0002 11.38 28.0002 9.00001 28.0002C8.95729 26.3341 8.95938 24.6664 9.00001 23.0002C10 22.0002 10 22.0002 12.5003 21.8867Z" fill="#C1D4C1"/>
<path d="M18 23C19.32 23 20.64 23 22 23C22.2888 23.8044 22.5775 24.6087 22.875 25.4375C23.7327 28.1326 23.7327 28.1326 26 29C26 29.66 26 30.32 26 31C27.65 31.33 29.3 31.66 31 32C30.449 35.9493 29.6107 39.3492 28 43C26.02 42.67 24.04 42.34 22 42C17.4078 29.5148 17.4078 29.5148 18 23Z" fill="#B68202"/>
<path d="M15 40C17.3125 39.6875 17.3125 39.6875 20 40C22.9096 43.5562 23.8785 47.6004 25 52C22.69 52 20.38 52 18 52C17.4944 50.5645 16.9957 49.1265 16.5 47.6875C16.2216 46.887 15.9431 46.0865 15.6562 45.2617C15 43 15 43 15 40Z" fill="#171A1B"/>
<path d="M33 23C34.65 23.33 36.3 23.66 38 24C37.125 30.75 37.125 30.75 36 33C33.6569 32.7444 31.3216 32.4073 29 32C28.67 31.34 28.34 30.68 28 30C28.33 29.01 28.66 28.02 29 27C29.99 27 30.98 27 32 27C32.33 25.68 32.66 24.36 33 23Z" fill="#518944"/>
<path d="M18 23C19.32 23 20.64 23 22 23C22.2888 23.8044 22.5775 24.6087 22.875 25.4375C23.7326 28.1326 23.7326 28.1326 26 29C26 29.66 26 30.32 26 31C26.99 31 27.98 31 29 31C28.67 32.32 28.34 33.64 28 35C26.8863 34.505 26.8863 34.505 25.75 34C22.8612 32.7722 22.8612 32.7722 19 33C17.8423 29.5267 17.9313 26.6393 18 23Z" fill="#D8B71E"/>
<path d="M22 23C25.63 23 29.26 23 33 23C32.67 24.32 32.34 25.64 32 27C31.01 27 30.02 27 29 27C28.67 28.32 28.34 29.64 28 31C27.34 31 26.68 31 26 31C26 30.34 26 29.68 26 29C24.68 28.34 23.36 27.68 22 27C22 25.68 22 24.36 22 23Z" fill="#A5E05D"/>
<path d="M10 27C11.98 27 13.96 27 16 27C16.66 28.98 17.32 30.96 18 33C16.35 33 14.7 33 13 33C12.67 34.32 12.34 35.64 12 37C11.34 33.7 10.68 30.4 10 27Z" fill="#26677E"/>
<path d="M20 32C22.1687 32.506 23.9997 32.9998 26 34C26 34.99 26 35.98 26 37C25.01 37 24.02 37 23 37C23 38.65 23 40.3 23 42C21.1161 38.7345 20.5071 35.7189 20 32Z" fill="#E79118"/>
<path d="M18 23C19.32 23 20.64 23 22 23C22.2887 23.7837 22.5775 24.5675 22.875 25.375C23.8491 28.0967 23.8491 28.0967 26 30C23.6144 29.4242 21.3332 28.7777 19 28C18.67 28.66 18.34 29.32 18 30C18 27.69 18 25.38 18 23Z" fill="#D5CF51"/>
<path d="M23 41C24.98 41.99 24.98 41.99 27 43C27 45.64 27 48.28 27 51C27.66 51.33 28.32 51.66 29 52C28.01 52 27.02 52 26 52C25.4938 50.7316 24.9953 49.4602 24.5 48.1875C24.2216 47.4798 23.9431 46.7721 23.6562 46.043C23 44 23 44 23 41Z" fill="#AB5918"/>
<path d="M23 23C26.3 23 29.6 23 33 23C32.67 24.32 32.34 25.64 32 27C30.68 27 29.36 27 28 27C28 26.34 28 25.68 28 25C26.35 24.67 24.7 24.34 23 24C23 23.67 23 23.34 23 23Z" fill="#69DB77"/>
<path d="M31 33C31.33 33 31.66 33 32 33C31.67 35.97 31.34 38.94 31 42C30.34 42 29.68 42 29 42C28.67 43.65 28.34 45.3 28 47C26.629 43.3096 27.3999 41.2912 28.9375 37.75C29.3178 36.858 29.698 35.9659 30.0898 35.0469C30.3902 34.3714 30.6905 33.6959 31 33Z" fill="#806408"/>
<path d="M29 42C29.66 42 30.32 42 31 42C30.125 48.75 30.125 48.75 29 51C28.34 51 27.68 51 27 51C27.588 47.9758 28.2268 44.9824 29 42Z" fill="#66470F"/>
<path d="M10 22C12.31 22 14.62 22 17 22C16.67 22.99 16.34 23.98 16 25C14.02 25 12.04 25 10 25C10 24.01 10 23.02 10 22Z" fill="#556166"/>
<path d="M13 33C14.65 33 16.3 33 18 33C18 33.99 18 34.98 18 36C17.01 36 16.02 36 15 36C14.34 36.99 13.68 37.98 13 39C13 37.02 13 35.04 13 33Z" fill="#214B5B"/>
</svg>
